<svg xmlns="http://www.w3.org/2000/svg" width="32" height="32" viewBox="0 0 16 16"><rect width="16" height="8" x="0" y="4" fill="#E52521"/><rect width="12" height="2" x="2" y="2" fill="#E52521"/><rect width="8" height="1" x="4" y="1" fill="#E52521"/><rect width="6" height="1" x="5" y="0" fill="#E52521"/><rect width="3" height="3" x="2" y="3" fill="#fff"/><rect width="1" height="1" x="3" y="2" fill="#fff"/><rect width="3" height="3" x="11" y="3" fill="#fff"/><rect width="1" height="1" x="11" y="2" fill="#fff"/><rect width="2" height="2" x="7" y="4" fill="#fff"/><rect width="10" height="4" x="3" y="7" fill="#FFB47A"/><rect width="2" height="2" x="4" y="8" fill="#fff"/><rect width="2" height="2" x="10" y="8" fill="#fff"/><rect width="1" height="1" x="5" y="9" fill="#000"/><rect width="1" height="1" x="11" y="9" fill="#000"/><rect width="8" height="4" x="4" y="11" fill="#FFB47A"/><rect width="10" height="3" x="3" y="12" fill="#FFB47A"/><rect width="4" height="2" x="2" y="14" fill="#FFB47A"/><rect width="4" height="2" x="10" y="14" fill="#FFB47A"/></svg>